<svg width="143" height="95" viewBox="0 0 143 95" fill="none" xmlns="http://www.w3.org/2000/svg">
<path d="M38.3113 14.01H25.3153V31.33L13.1014 14.01H0.0151978V53.14H13.1014V36.09L24.3125 53.14H38.3113V14.01Z" fill="#0A004D"/>
<path d="M41.079 53.14H72.115V42.17H54.4661V38.44H70.5205V28.01H54.4661V24.97H72.115V14.01H41.079V53.14Z" fill="#0A004D"/>
<path d="M105.718 14.01V24.92H119.065V53.14H132.442V24.92H142.44V14.01H105.718Z" fill="#0A004D"/>
<path d="M13.1014 57.66H0.0151978V94.54H23.39V83.95H13.1014V57.66Z" fill="#0A004D"/>
<path d="M25.3153 94.54H56.4716V83.95H38.3113V80.73H54.9775V70.82H38.3113V68.06H56.4716V57.72H25.3153V94.54Z" fill="#0A004D"/>
<path d="M91.2579 94.54H116.448V83.95H104.134V80.73H114.944V70.82H104.134V68.06H116.448V57.66H91.2579V94.54Z" fill="#0A004D"/>
<path d="M132.442 57.66H119.065V94.54H142.44V83.95H132.442V57.66Z" fill="#0A004D"/>
<path d="M116.207 53.14L88.4401 14.01H72.506L100.273 53.14H116.207Z" fill="#0A004D"/>
<path d="M114.021 19.06L112.768 1.84999C112.717 1.11999 111.935 0.669986 111.273 0.989986L95.7002 8.50999C94.9482 8.86999 94.908 9.92999 95.63 10.35L98.2673 11.87C98.2673 11.87 98.3075 11.9 98.3275 11.91C98.5381 12.07 98.6083 12.36 98.488 12.6L70.3701 67.3C70.1695 67.7 69.5979 67.7 69.3873 67.3L64.3935 57.97C64.2932 57.79 64.1127 57.68 63.9021 57.68L50.8259 57.72L69.0564 93.57C69.257 93.97 69.8286 93.98 70.0391 93.57L109.649 19.06C109.799 18.78 110.14 18.68 110.421 18.84L112.467 20.02C113.189 20.44 114.091 19.88 114.031 19.04L114.021 19.06Z" fill="url(#paint0_linear_49_128)"/>
<defs>
<linearGradient id="paint0_linear_49_128" x1="109.93" y1="-9.59001" x2="63.9848" y2="71.2996" gradientUnits="userSpaceOnUse">
<stop offset="0.02" stop-color="#09A728"/>
<stop offset="1" stop-color="#2FCB4B"/>
</linearGradient>
</defs>
</svg>
