<svg width="36" height="35" viewBox="0 0 36 35" fill="none" xmlns="http://www.w3.org/2000/svg">
<g clip-path="url(#clip0_23_977)">
<path d="M24.8988 21.1825C28.4065 22.2044 30.8087 24.9961 31 28.0195V28.2513C31 29.2204 30.2028 30 29.2355 30H7.76446C6.78656 30 6 29.2099 6 28.2513V28.0195C6.21259 24.5747 9.31633 21.4353 13.6424 20.8559L13.8869 20.8138C14.9605 20.6558 16.0128 20.9297 17.0757 21.1404C17.7347 21.2668 17.6815 21.2773 18.3937 21.2773M18.3937 21.2879C22.1458 21.2879 24.0166 17.2847 24.0166 13.1446C24.0166 10.1422 23.5808 8.43562 22.284 7.28735C21.1361 6.28656 20.1794 5.97052 18.2449 6.00212C15.6514 6.03373 12.4838 7.13986 12.4838 12.1438C12.4838 14.5878 13.281 16.6842 14.1845 18.2434" stroke="#42C14D" stroke-width="2" stroke-linecap="round" stroke-linejoin="round"/>
<path d="M4.14876 30.0485C2.03237 30.1114 2.14762 27.7959 2.6191 26.4025C3.41536 24.0346 5.48984 22.2745 7.79482 21.4468" stroke="white" stroke-width="2" stroke-linecap="round" stroke-linejoin="round"/>
<path d="M12.6458 6.39111C7.29192 7.64837 8.29773 14.7414 10.3617 18.3665" stroke="white" stroke-width="2" stroke-linecap="round" stroke-linejoin="round"/>
<path d="M29.0006 21.0592C31.1484 21.6983 33.1286 23.1023 34.1973 25.0929C34.9307 26.4549 35.7898 29.2628 33.621 29.7867" stroke="white" stroke-width="2" stroke-linecap="round" stroke-linejoin="round"/>
<path d="M26.4547 19.079C29.4406 14.8672 29.1368 5.76252 22.4419 5.96159" stroke="white" stroke-width="2" stroke-linecap="round" stroke-linejoin="round"/>
</g>
<defs>
<clipPath id="clip0_23_977">
<rect width="35" height="35" fill="white" transform="translate(0.5)"/>
</clipPath>
</defs>
</svg>
