<svg width="31" height="34" viewBox="0 0 31 34" fill="none" xmlns="http://www.w3.org/2000/svg">
<path d="M25.6001 15.15C25.6001 18.9 22.2401 22.88 19.5201 25.6C18.4801 26.64 21.2001 28.45 15.6401 28.45C10.0801 28.45 12.8001 26.7 11.7601 25.66C9.30005 23.2 5.68005 18.9 5.68005 15.15C5.68005 10.15 10.1401 6.08997 15.6401 6.08997C21.1401 6.08997 25.6001 10.15 25.6001 15.15Z" stroke="#0A004D" stroke-width="1.5" stroke-miterlimit="10" stroke-linecap="round"/>
<path d="M15.64 25.79V18.15" stroke="#2FCB4B" stroke-width="1.5" stroke-miterlimit="10" stroke-linecap="round"/>
<path d="M12.39 30.6799H18.39" stroke="#0A004D" stroke-width="1.5" stroke-miterlimit="10" stroke-linecap="round"/>
<path d="M13.1 32.87H17.68" stroke="#0A004D" stroke-width="1.5" stroke-miterlimit="10" stroke-linecap="round"/>
<path d="M13.35 17.52H17.93" stroke="#2FCB4B" stroke-width="1.5" stroke-miterlimit="10" stroke-linecap="round"/>
<path d="M4.18 15.2H1" stroke="#2FCB4B" stroke-width="1.5" stroke-miterlimit="10" stroke-linecap="round"/>
<path d="M30.16 15.2H26.98" stroke="#2FCB4B" stroke-width="1.5" stroke-miterlimit="10" stroke-linecap="round"/>
<path d="M15.58 1.13V4.20001" stroke="#2FCB4B" stroke-width="1.5" stroke-miterlimit="10" stroke-linecap="round"/>
</svg>
