<svg width="34" height="34" viewBox="0 0 34 34" fill="none" xmlns="http://www.w3.org/2000/svg">
<path d="M31.0606 22.3263C31.6683 20.6654 32 18.8714 32 17C32 8.43959 25.0604 1.5 16.5 1.5C7.93959 1.5 1 8.43959 1 17C1 25.5604 7.93959 32.5 16.5 32.5C20.4698 32.5 24.0911 31.0076 26.8333 28.5532" stroke="#0A004D" stroke-width="1.5"/>
<path d="M15.9805 26.0605V24.3027C15.1016 24.1921 14.3854 23.9967 13.832 23.7168C13.2852 23.4303 12.8099 22.9714 12.4062 22.3398C12.0091 21.7083 11.778 20.9368 11.7129 20.0254L13.4805 19.6934C13.6172 20.6374 13.8581 21.3307 14.2031 21.7734C14.6979 22.3984 15.2904 22.7467 15.9805 22.8184V17.2227C15.2578 17.0859 14.5189 16.806 13.7637 16.3828C13.2038 16.0703 12.7708 15.6374 12.4648 15.084C12.1654 14.5306 12.0156 13.9023 12.0156 13.1992C12.0156 11.9492 12.4583 10.9368 13.3438 10.1621C13.9362 9.64128 14.8151 9.32227 15.9805 9.20508V8.36523H17.0156V9.20508C18.0378 9.30273 18.8483 9.60221 19.4473 10.1035C20.2155 10.7415 20.6777 11.6172 20.834 12.7305L19.0176 13.0039C18.9134 12.3138 18.6953 11.7865 18.3633 11.4219C18.0378 11.0508 17.5885 10.8066 17.0156 10.6895V15.7578C17.901 15.9792 18.487 16.1517 18.7734 16.2754C19.3203 16.5163 19.7663 16.8092 20.1113 17.1543C20.4564 17.4993 20.7201 17.9095 20.9023 18.3848C21.0911 18.86 21.1855 19.3743 21.1855 19.9277C21.1855 21.1452 20.7982 22.1608 20.0234 22.9746C19.2487 23.7884 18.2461 24.2246 17.0156 24.2832V26.0605H15.9805ZM15.9805 10.6699C15.2969 10.7741 14.7565 11.0475 14.3594 11.4902C13.9688 11.9329 13.7734 12.457 13.7734 13.0625C13.7734 13.6615 13.9395 14.1628 14.2715 14.5664C14.61 14.9701 15.1797 15.2923 15.9805 15.5332V10.6699ZM17.0156 22.8184C17.6992 22.7337 18.2624 22.4375 18.7051 21.9297C19.1543 21.4219 19.3789 20.7936 19.3789 20.0449C19.3789 19.4069 19.2194 18.8958 18.9004 18.5117C18.5879 18.1211 17.9596 17.7728 17.0156 17.4668V22.8184Z" fill="#00B140"/>
<path d="M23.0216 20.5783L32.8611 23.131L27.8421 30.1852L23.0216 20.5783Z" stroke="#0A004D" stroke-width="1.5" stroke-linejoin="round"/>
</svg>
