<svg width="33" height="33" viewBox="0 0 33 33" fill="none" xmlns="http://www.w3.org/2000/svg">
<path d="M16.34 5.58003C17.5606 5.58003 18.55 4.59058 18.55 3.37003C18.55 2.14948 17.5606 1.16003 16.34 1.16003C15.1195 1.16003 14.13 2.14948 14.13 3.37003C14.13 4.59058 15.1195 5.58003 16.34 5.58003Z" stroke="#0A004D" stroke-width="1.5" stroke-miterlimit="10" stroke-linecap="round"/>
<path d="M16.34 6.22009V12.3101" stroke="#0A004D" stroke-width="1.5" stroke-miterlimit="10" stroke-linecap="round"/>
<path d="M16.34 31.84C17.5606 31.84 18.55 30.8506 18.55 29.63C18.55 28.4095 17.5606 27.42 16.34 27.42C15.1195 27.42 14.13 28.4095 14.13 29.63C14.13 30.8506 15.1195 31.84 16.34 31.84Z" stroke="#0A004D" stroke-width="1.5" stroke-miterlimit="10" stroke-linecap="round"/>
<path d="M16.34 26.7801V20.6801" stroke="#0A004D" stroke-width="1.5" stroke-miterlimit="10" stroke-linecap="round"/>
<path d="M29.47 18.71C30.6905 18.71 31.68 17.7206 31.68 16.5C31.68 15.2795 30.6905 14.29 29.47 14.29C28.2494 14.29 27.26 15.2795 27.26 16.5C27.26 17.7206 28.2494 18.71 29.47 18.71Z" stroke="#0A004D" stroke-width="1.5" stroke-miterlimit="10" stroke-linecap="round"/>
<path d="M26.62 16.5H20.52" stroke="#0A004D" stroke-width="1.5" stroke-miterlimit="10" stroke-linecap="round"/>
<path d="M3.21 18.71C4.43055 18.71 5.42 17.7206 5.42 16.5C5.42 15.2795 4.43055 14.29 3.21 14.29C1.98945 14.29 1 15.2795 1 16.5C1 17.7206 1.98945 18.71 3.21 18.71Z" stroke="#0A004D" stroke-width="1.5" stroke-miterlimit="10" stroke-linecap="round"/>
<path d="M6.06 16.5H12.15" stroke="#0A004D" stroke-width="1.5" stroke-miterlimit="10" stroke-linecap="round"/>
<path d="M25.62 27.9901C26.8406 27.9901 27.83 27.0006 27.83 25.7801C27.83 24.5595 26.8406 23.5701 25.62 23.5701C24.3995 23.5701 23.41 24.5595 23.41 25.7801C23.41 27.0006 24.3995 27.9901 25.62 27.9901Z" stroke="#00B140" stroke-width="1.5" stroke-miterlimit="10" stroke-linecap="round"/>
<path d="M23.61 23.7701L19.3 19.4601" stroke="#00B140" stroke-width="1.5" stroke-miterlimit="10" stroke-linecap="round"/>
<path d="M7.05003 9.42012C8.27058 9.42012 9.26003 8.43067 9.26003 7.21012C9.26003 5.98957 8.27058 5.00012 7.05003 5.00012C5.82948 5.00012 4.84003 5.98957 4.84003 7.21012C4.84003 8.43067 5.82948 9.42012 7.05003 9.42012Z" stroke="#00B140" stroke-width="1.5" stroke-miterlimit="10" stroke-linecap="round"/>
<path d="M9.07004 9.2301L13.38 13.5401" stroke="#00B140" stroke-width="1.5" stroke-miterlimit="10" stroke-linecap="round"/>
<path d="M7.05003 27.9901C8.27058 27.9901 9.26003 27.0006 9.26003 25.7801C9.26003 24.5595 8.27058 23.5701 7.05003 23.5701C5.82948 23.5701 4.84003 24.5595 4.84003 25.7801C4.84003 27.0006 5.82948 27.9901 7.05003 27.9901Z" stroke="#00B140" stroke-width="1.5" stroke-miterlimit="10" stroke-linecap="round"/>
<path d="M9.07004 23.7701L13.38 19.4601" stroke="#00B140" stroke-width="1.5" stroke-miterlimit="10" stroke-linecap="round"/>
<path d="M25.62 9.42012C26.8406 9.42012 27.83 8.43067 27.83 7.21012C27.83 5.98957 26.8406 5.00012 25.62 5.00012C24.3995 5.00012 23.41 5.98957 23.41 7.21012C23.41 8.43067 24.3995 9.42012 25.62 9.42012Z" stroke="#00B140" stroke-width="1.5" stroke-miterlimit="10" stroke-linecap="round"/>
<path d="M23.61 9.2301L19.3 13.5401" stroke="#00B140" stroke-width="1.5" stroke-miterlimit="10" stroke-linecap="round"/>
<path d="M16.34 20.6801C18.6486 20.6801 20.52 18.8086 20.52 16.5001C20.52 14.1915 18.6486 12.3201 16.34 12.3201C14.0315 12.3201 12.16 14.1915 12.16 16.5001C12.16 18.8086 14.0315 20.6801 16.34 20.6801Z" stroke="#00B140" stroke-width="1.5" stroke-miterlimit="10" stroke-linecap="round"/>
</svg>
