<svg width="36" height="35" viewBox="0 0 36 35" fill="none" xmlns="http://www.w3.org/2000/svg">
<path d="M30.05 14.74C30.58 16.18 30.87 17.73 30.87 19.35C30.87 26.68 24.93 32.62 17.6 32.62C10.27 32.62 4.33 26.68 4.33 19.35C4.33 12.02 10.27 6.07996 17.6 6.07996" stroke="white" stroke-width="1.5" stroke-miterlimit="10" stroke-linecap="round"/>
<path d="M13.2 22.6022C13.2 23.4949 13.6209 24.2091 14.4499 24.783C15.2788 25.3442 16.3757 25.6248 17.7403 25.6248C19.0157 25.6248 20.0359 25.357 20.8267 24.8213C21.6174 24.2857 22 23.5842 22 22.717C22 22.1558 21.8725 21.6712 21.6046 21.2758C21.3368 20.8804 20.9159 20.5488 20.342 20.2555C19.7681 19.9622 18.9646 19.7199 17.9699 19.503C16.4649 19.2097 15.0748 18.623 14.4881 18.1639C13.9015 17.7048 13.6081 17.0671 13.6081 16.2636C13.6081 15.4601 13.978 14.7842 14.7304 14.2613C15.4829 13.7384 16.4649 13.4706 17.6638 13.4706C18.9774 13.4706 20.0232 13.7512 20.8139 14.3251C21.6046 14.899 22 15.6642 22 16.6335" stroke="#42C14D" stroke-width="1.5" stroke-miterlimit="10" stroke-linecap="round"/>
<path d="M17.6 28.8387V27.4486V25.6886" stroke="#42C14D" stroke-width="1.5" stroke-miterlimit="10" stroke-linecap="round"/>
<path d="M17.6 13.4068V12.0422V9.86133" stroke="#42C14D" stroke-width="1.5" stroke-miterlimit="10" stroke-linecap="round"/>
<path d="M25.9 14.75V2.98999" stroke="#42C14D" stroke-width="1.5" stroke-miterlimit="10" stroke-linecap="round"/>
<path d="M21.43 6.85L25.9 2.37L30.38 6.85" stroke="#42C14D" stroke-width="1.5" stroke-miterlimit="10" stroke-linecap="round"/>
</svg>
