<svg width="33" height="30" viewBox="0 0 33 30" fill="none" xmlns="http://www.w3.org/2000/svg">
<path d="M18.9312 21.3989H15.2312C11.9912 21.3989 9.35117 18.7889 9.35117 15.5389C9.35117 12.2989 11.9612 9.65894 15.2112 9.65894H20.5012" stroke="#0A004D" stroke-width="1.5" stroke-linecap="round" stroke-linejoin="round"/>
<path d="M18.3312 4.16897H15.4012L14.6312 2.16897C14.3212 1.36897 13.4412 0.958966 12.6312 1.21897L10.4212 1.94897C9.94118 2.06897 9.65118 2.55897 9.68118 3.05897L10.0112 5.54897C9.12118 6.08897 8.25118 6.71897 7.41118 7.44897L5.11118 6.48897C4.65118 6.29897 4.07118 6.44897 3.78118 6.92897L2.15118 9.39897C1.86118 9.87897 1.99118 10.369 2.37118 10.679L4.41118 12.219C4.15118 13.209 3.91118 14.299 3.99118 15.409L1.65118 16.309C1.19118 16.529 0.901176 17.009 1.03118 17.499L1.77118 20.399C1.89118 20.879 2.38118 21.169 2.88118 21.139L5.37118 20.809C5.91118 21.699 6.54118 22.569 7.27118 23.409L6.22118 25.729C6.03118 26.189 6.18118 26.769 6.64118 26.959L9.28118 28.449C9.76118 28.739 10.2512 28.609 10.5612 28.229L11.9512 26.379L15.0612 26.519L15.9512 28.859" stroke="#0A004D" stroke-width="1.5" stroke-linecap="round" stroke-linejoin="round"/>
<path d="M17.0511 13.539H22.2311L24.4111 9.94897H27.1611" stroke="#2FCB4B" stroke-width="1.5" stroke-linecap="round" stroke-linejoin="round"/>
<path d="M15.5712 17.1089H19.4112L20.8912 19.1289H25.2012" stroke="#2FCB4B" stroke-width="1.5" stroke-linecap="round" stroke-linejoin="round"/>
<path d="M18.0612 26.1389H22.3012" stroke="#2FCB4B" stroke-width="1.5" stroke-linecap="round" stroke-linejoin="round"/>
<path d="M23.2112 5.59888C23.9015 5.59888 24.4612 5.03923 24.4612 4.34888C24.4612 3.65852 23.9015 3.09888 23.2112 3.09888C22.5208 3.09888 21.9612 3.65852 21.9612 4.34888C21.9612 5.03923 22.5208 5.59888 23.2112 5.59888Z" stroke="#2FCB4B" stroke-width="1.5" stroke-linecap="round" stroke-linejoin="round"/>
<path d="M28.6613 20.2988C29.3516 20.2988 29.9113 19.7392 29.9113 19.0488C29.9113 18.3585 29.3516 17.7988 28.6613 17.7988C27.9709 17.7988 27.4113 18.3585 27.4113 19.0488C27.4113 19.7392 27.9709 20.2988 28.6613 20.2988Z" stroke="#2FCB4B" stroke-width="1.5" stroke-linecap="round" stroke-linejoin="round"/>
<path d="M30.7711 11.449C31.4615 11.449 32.0211 10.8893 32.0211 10.199C32.0211 9.50862 31.4615 8.94897 30.7711 8.94897C30.0808 8.94897 29.5211 9.50862 29.5211 10.199C29.5211 10.8893 30.0808 11.449 30.7711 11.449Z" stroke="#2FCB4B" stroke-width="1.5" stroke-linecap="round" stroke-linejoin="round"/>
<path d="M24.9912 27.2589C25.6816 27.2589 26.2412 26.6993 26.2412 26.0089C26.2412 25.3186 25.6816 24.7589 24.9912 24.7589C24.3009 24.7589 23.7412 25.3186 23.7412 26.0089C23.7412 26.6993 24.3009 27.2589 24.9912 27.2589Z" stroke="#2FCB4B" stroke-width="1.5" stroke-linecap="round" stroke-linejoin="round"/>
</svg>
